<svg xmlns="http://www.w3.org/2000/svg" viewBox="0 0 400 400"><defs><linearGradient id="g1" x1="0%" y1="0%" x2="100%" y2="100%"><stop offset="0%" stop-color="#6366f1"/><stop offset="100%" stop-color="#8b5cf6"/></linearGradient><linearGradient id="g2" x1="100%" y1="0%" x2="0%" y2="100%"><stop offset="0%" stop-color="#06b6d4"/><stop offset="100%" stop-color="#6366f1"/></linearGradient></defs><rect width="400" height="400" rx="80" fill="#0a0a12"/><circle cx="200" cy="200" r="130" fill="none" stroke="url(#g1)" stroke-width="3" opacity="0.5"/><circle cx="200" cy="200" r="105" fill="none" stroke="url(#g2)" stroke-width="2" opacity="0.35"/><path d="M200 85 L200 315 M85 200 L315 200" stroke="url(#g1)" stroke-width="2.5" opacity="0.25"/><path d="M140 160 Q200 120 260 160 Q280 200 260 240 Q200 280 140 240 Q120 200 140 160Z" fill="none" stroke="url(#g1)" stroke-width="7" stroke-linecap="round" stroke-linejoin="round"/><ellipse cx="200" cy="200" rx="28" ry="45" fill="none" stroke="url(#g2)" stroke-width="5" transform="rotate(20 200 200)"/><circle cx="200" cy="155" r="8" fill="#8b5cf6"/><circle cx="245" cy="220" r="6" fill="#06b6d4"/><circle cx="158" cy="228" r="5" fill="#6366f1"/><text x="200" y="365" text-anchor="middle" font-family="system-ui,-apple-system,sans-serif" font-size="32" font-weight="700" letter-spacing="10" fill="#e2e8f0">LIMINAL</text></svg>
